<svg xmlns="http://www.w3.org/2000/svg" width="20" height="20" fill="none"><path stroke="#403F3D" stroke-linecap="round" stroke-linejoin="round" stroke-width="1.5" d="M14.17 9.77v1.9a5.83 5.83 0 0 1-11.67 0v-1.9c0-.33.27-.6.6-.6h10.47c.33 0 .6.27.6.6ZM10 7.5c0-.83.6-1.67 1.79-1.67v0a2.38 2.38 0 0 0 2.38-2.38v-.53M6.67 7.5v-.42a2.5 2.5 0 0 1 2.5-2.5v0c.92 0 1.66-.74 1.66-1.66V2.5"/><path stroke="#403F3D" stroke-linecap="round" stroke-linejoin="round" stroke-width="1.5" d="M13.33 9.17h2.09a2.08 2.08 0 0 1 0 4.16h-1.25"/></svg>