<svg xmlns="http://www.w3.org/2000/svg" width="36" height="36" fill="none"><path fill="#403F3D" d="M26.7 18.63c-.03-4 3.36-5.94 3.52-6.03a7.62 7.62 0 0 0-5.95-3.14c-2.5-.26-4.93 1.46-6.2 1.46-1.3 0-3.27-1.43-5.39-1.4a7.95 7.95 0 0 0-6.66 3.97c-2.89 4.87-.74 12.02 2.03 15.95 1.38 1.93 3 4.08 5.1 4 2.07-.08 2.85-1.28 5.34-1.28 2.47 0 3.2 1.29 5.35 1.24 2.22-.04 3.62-1.94 4.95-3.88 1.6-2.2 2.24-4.38 2.27-4.5-.05-.01-4.31-1.6-4.35-6.39ZM22.63 6.87A6.96 6.96 0 0 0 24.3 1.8a7.46 7.46 0 0 0-4.79 2.41c-1.02 1.17-1.94 3.09-1.7 4.89 1.8.13 3.66-.9 4.82-2.23Z"/></svg>